<?xml version="1.0" encoding="UTF-8" standalone="no"?>
<!DOCTYPE svg PUBLIC "-//W3C//DTD SVG 1.1//EN" "http://www.w3.org/Graphics/SVG/1.1/DTD/svg11.dtd">
<svg
    xmlns:svg="http://www.w3.org/2000/svg"
    xmlns="http://www.w3.org/2000/svg"
    version="1.1"
    width="708.66144"
    height="451.37939"
    id="svg7606">
  <defs id="defs7608" />
  <path
      d="m 222.02708,214.43909 c 7.09675,0.88203 13.17968,1.99723 20.27643,2.77787 2.02765,0.0913 4.05529,-0.64884 5.06911,-2.03778 4.05529,-7.58338 3.04147,-17.39718 4.05529,-25.92342 l 0,-0.18249 -5.06911,3.70045 0,-6.8433 c 16.22115,-13.70687 35.48376,-30.09023 42.58052,-49.2616 2.02764,-12.8654 13.17968,-22.17228 23.3179,-31.84414 6.08293,-7.776014 15.20732,-8.516104 23.3179,-13.331757 3.04146,-2.919807 4.05529,-7.22855 4.05529,-11.669089 -3.04147,0.882025 -8.11058,1.713358 -11.15204,-0.74009 -2.02765,-0.415667 -3.04147,1.429488 -4.05529,2.595384 -5.06911,11.425771 -16.22115,20.276432 -25.34555,29.248762 -10.13821,9.0737 -27.37319,10.56402 -39.53905,4.81565 -24.33172,-9.94559 -44.60816,-28.508669 -64.88459,-46.291103 -12.16586,-10.503194 -28.38701,-8.749283 -40.55287,-16.474605 -4.05529,-1.76405 -9.1244,-5.140076 -13.17969,-2.970498 -1.01382,1.348383 -2.02764,3.710588 -4.05528,4.075564 -2.02765,0.375114 -4.05529,-1.48018 -6.08294,-0.557602 -2.02764,1.297692 -2.02764,3.751141 -2.02764,6.113346 0,4.906897 4.05529,9.124396 8.11058,11.293974 12.16586,6.995371 29.40083,3.933629 38.52522,17.589809 12.16587,17.082895 24.33173,35.189755 42.58052,49.261605 3.04146,2.68662 7.09675,5.4138 10.13822,7.9585 7.09675,-5.73823 11.15204,-12.50043 14.1935,-19.99257 1.01382,16.05894 -13.17968,28.50867 -25.34554,39.06256 -9.1244,6.81288 -17.23497,12.78429 -26.35937,18.8875 -1.01382,0.84147 -1.01382,2.45344 -1.01382,3.51796 l 9.1244,11.85157 c 3.04146,3.61935 5.0691,5.22119 8.11057,7.85712 5.06911,4.05529 11.15204,6.94468 15.20733,7.51242 z"
      id="path6451"
      style="fill:#ffffff;fill-rule:nonzero;stroke:#ffffff;stroke-width:0.71981353;stroke-linecap:butt;stroke-linejoin:miter;stroke-miterlimit:3.86400008;stroke-dasharray:none;"
  />
  <path
      d="m 708.66154,324.43876 -37.51141,0 -12.16586,75.36751 c -3.04146,18.03589 -11.15204,26.70407 -29.40083,26.70407 -20.27644,0 -23.3179,-9.15481 -20.27644,-26.70407 l 12.16587,-75.36751 -37.51141,0 -12.16586,73.53249 c -7.09676,40.11693 10.13822,53.40814 52.71873,53.40814 44.60816,0 65.89842,-14.14282 71.98135,-53.1851 l 12.16586,-73.75553 m -194.65379,57.95005 c 18.2488,-1.12534 30.41466,-11.07093 33.45612,-27.02849 4.05529,-23.58149 -14.1935,-30.92156 -53.73255,-30.92156 l -55.7602,0 -20.27644,124.48718 63.87078,0 c 33.45612,0 58.80166,-8.27279 62.85695,-35.07824 3.04146,-16.66723 -5.06911,-28.52894 -30.41466,-30.65797 l 0,-0.80092 z m -41.56669,-32.82755 19.26262,0 c 12.16586,0 18.24879,3.33548 16.22114,10.89859 -1.01382,7.99905 -8.11057,11.79074 -19.26261,11.79074 l -20.27644,0 4.05529,-22.68933 z m -8.11057,47.81184 20.27643,0 c 15.20733,0 22.30408,5.31242 21.29026,13.86908 -2.02764,9.26633 -9.1244,12.56125 -26.35937,12.56125 l -19.26261,0 4.05529,-26.43033 m -110.50658,24.72711 2.02764,26.82573 40.55288,0 -19.26262,-124.48718 -52.71873,0 -60.82931,124.48718 40.55287,0 11.15204,-26.82573 38.52523,0 z m -2.02764,-25.17319 -26.35937,0 11.15204,-25.92343 c 3.04147,-7.50228 6.08293,-15.4405 10.13822,-25.66997 l 1.01382,0 c 1.01382,10.1585 1.01382,17.72161 2.02764,25.58887 l 2.02765,26.00453 M 213.9165,409.25509 c -2.02764,-14.30503 -10.13822,-42.80356 -22.30408,-84.81633 l -53.73255,0 -20.27644,124.48718 35.48376,0 c 6.08293,-42.13444 11.15204,-70.38965 12.16587,-84.81634 l 1.01382,0 c 3.04146,14.25434 10.13822,42.6008 23.3179,84.81634 l 52.71873,0 21.29026,-124.48718 -35.48376,0 c -7.09676,41.9925 -11.15204,70.27812 -13.17969,84.81633 l -1.01382,0"
      id="path6459"
      style="fill:#176fc0;fill-rule:nonzero;stroke:none;"
  />
  <path
      d="M 83.250102,-3.687426e-6 C 82.869919,-0.04021994 82.505285,0.09106917 82.125102,0.56249631 c 0,5.64698739 4.052285,9.94626869 7.09375,14.43749969 5.069109,7.035923 13.167068,13.203673 19.249998,18.34375 C 94.275347,28.244222 81.117285,18.441183 67.937602,9.0937463 c -1.013822,-0.466358 -2.048678,-1.4850778 -3.0625,-0.5625 -1.013822,3.6092057 1.034856,6.5176927 3.0625,9.4374997 11.15204,13.423001 26.337745,20.400969 40.531248,26.65625 -15.207325,-1.530871 -30.400243,-6.617442 -44.593748,-12.03125 -1.013822,-0.517049 -3.034856,-1.348155 -5.0625,-0.75 0,1.814741 1.017428,3.221749 2.03125,4.46875 13.179683,9.95573 28.386423,13.837597 43.593748,17.40625 -13.179681,1.429489 -27.396636,0.128533 -39.562498,-3.15625 -2.027644,-0.506911 -5.052285,-1.348155 -8.09375,-0.75 0,3.102295 4.034856,4.776617 6.0625,6.125 11.15204,5.505052 24.351567,6.807867 37.531248,8.15625 -6.082929,1.105066 -12.167067,1.65625 -18.249998,1.65625 -7.096753,0.09124 -14.184497,-0.927476 -21.28125,-0.5625 -1.013822,0.557602 0,1.20003 0,1.65625 11.15204,6.295833 25.320317,5.663768 38.5,5.9375 -5.069109,1.987091 -11.135819,2.901845 -17.21875,3.5 -5.069109,0.74009 -10.132213,-0.735192 -14.1875,0.5625 -1.013822,0.831334 -0.01382,1.808095 1,2.40625 8.110574,4.126255 19.250604,3.338738 28.375,3.15625 l 0,0.375 c -4.055287,3.477409 -10.132213,3.094129 -14.1875,4.625 0,0.506911 -1.013822,1.478774 0,1.84375 7.096753,4.541922 15.201926,-2.57545 23.312498,1.125 8.11057,4.258052 15.23318,9.727904 23.34375,15.750004 23.3179,23.7944 48.65806,45.56735 76.03125,60.15625 -7.09675,5.64699 -14.21575,9.53561 -21.3125,14.625 -2.02764,1.29769 -2,3.66153 -2,5.75 l 4.03125,5.46875 10.15625,11.9375 c 1.01382,-1.20645 3.04507,-2.91153 2.03125,-5 l -5.09375,-6.9375 -4.03125,-4.90625 c 0,-1.06451 -0.0138,-2.69992 1,-3.53125 9.1244,-6.11335 17.2506,-12.06212 26.375,-18.875 12.16586,-10.55388 26.35757,-23.00356 25.34375,-39.0625 -3.04147,7.49214 -7.09075,14.23052 -14.1875,19.96875 -3.04147,-2.54469 -7.11478,-5.25087 -10.15625,-7.9375 -18.24879,-14.07185 -30.39664,-32.19835 -42.5625,-49.281254 -9.1244,-13.65618 -26.36539,-10.56713 -38.53125,-17.5625 -5.06911,-2.169579 -8.125,-6.405602 -8.125,-11.3125 0,-2.362205 0.004,-4.827308 2.03125,-6.125 2.02764,-0.922578 4.06611,0.937614 6.09375,0.5625 2.02764,-0.364976 3.01743,-2.714117 4.03125,-4.0625 4.05529,-2.169579 9.13221,1.2047 13.1875,2.96875 12.16586,7.725322 28.39664,5.965556 40.5625,16.46875 20.27644,17.782434 40.54328,36.335664 64.875,46.281254 12.16586,5.74837 29.39303,4.26121 39.53125,-4.8125 9.1244,-8.97232 20.30589,-17.824232 25.375,-29.250004 1.01382,-1.165895 2.00361,-3.009417 4.03125,-2.59375 3.04147,2.453449 8.11478,1.632025 11.15625,0.75 0,4.440539 -1.02103,8.736443 -4.0625,11.65625 -8.11057,4.815654 -17.22957,5.567737 -23.3125,13.343754 -10.13822,9.67186 -21.28486,18.97835 -23.3125,31.84375 -7.09675,19.17137 -26.3726,35.54313 -42.59375,49.25 l 0,6.21875 0,0.625 1.03125,-0.625 4.0625,-3.0625 0,0.1875 0,2.875 c -1.01382,7.78615 -1.02103,16.28934 -4.0625,23.03125 -1.01382,1.38894 -3.03486,2.15374 -5.0625,2.0625 -7.09675,-0.78064 -13.1845,-1.89923 -20.28125,-2.78125 -2.02764,0.88202 -2.03125,2.96734 -2.03125,4.8125 7.09675,1.20645 15.21575,2.8106 22.3125,3.5 3.04147,-0.1318 6.06611,-0.85917 8.09375,-2.9375 6.08293,-7.6138 5.07993,-17.99536 6.09375,-27.6875 1.01382,-1.09493 1,-2.18549 1,-3.25 3.04147,1.13548 6.08353,2.22604 9.125,3.25 13.17968,4.26819 27.36899,7.51876 41.5625,9.71875 23.3179,5.32256 52.73739,-3.27628 72,10.9375 7.09675,3.79169 8.10096,10.91813 12.15625,16.28125 1.01382,1.34838 2.03486,3.64194 4.0625,3.5 1.01382,-0.45622 1,-1.10366 1,-1.84375 -2.02764,-4.30874 -4.04507,-8.97311 -3.03125,-14.0625 l 6.09375,10.75 c 3.04147,4.49123 7.07332,11.43811 13.15625,12.21875 1.01382,-0.0912 1.03125,-0.9424 1.03125,-1.5 -6.08293,-8.84053 -12.17368,-18.04249 -13.1875,-28.3125 5.06911,8.33362 10.15325,16.70215 17.25,24.0625 3.04147,2.50414 5.06971,5.83133 9.125,5 l 0,-1.3125 c -8.11057,-10.64513 -15.21214,-21.36467 -20.28125,-33.125 7.09675,9.25619 15.1881,19.14907 24.3125,26.09375 4.05529,1.85529 7.10096,4.78338 11.15625,3.34375 l 0,-1.46875 c -11.15204,-11.47646 -22.29207,-23.11755 -28.375,-36.5 8.11057,8.33362 17.21935,16.05984 26.34375,22.03125 5.06911,2.32165 10.13582,6.36961 16.21875,4.65625 l 0,-1.5 c -11.15204,-9.10412 -23.29928,-17.97892 -33.4375,-28.96875 -1.01382,-1.47004 -3.04868,-2.9801 -4.0625,-4.53125 2.02764,1.30783 5.06611,2.93955 7.09375,4.53125 2.02764,1.06451 3.03486,2.12978 5.0625,3.0625 12.16586,6.7115 24.35517,13.32393 39.5625,11.84375 1.01382,-0.60829 3.04507,-0.88039 2.03125,-2.59375 0,-0.83133 -1.03125,-1.10879 -1.03125,-1.65625 -9.1244,-3.44699 -17.23318,-6.65165 -25.34375,-10.65625 -6.08293,-3.09216 -12.14964,-6.67683 -17.21875,-11.21875 7.09675,2.87925 14.1845,4.92356 21.28125,6.3125 6.08293,0.74009 14.18089,2.01785 19.25,-1.125 0,-0.50691 1.01382,-1.10377 0,-1.46875 -32.4423,-5.28201 -60.81431,-23.69983 -88.1875,-44.25 l -3.0625,-0.9375 c -28.38701,1.48018 -57.76203,0.33073 -82.09375,-9.625 l 1,-0.9375 c 9.1244,-12.54098 21.29267,-27.20569 36.5,-31.281254 l 58.8125,-37.96875 -47.65625,16.28125 -2.03125,0 c -4.05529,-2.96036 -9.11839,-5.713966 -14.1875,-4.78125 -7.09675,1.845156 -10.13221,9.9105 -14.1875,15.375 C 303.14674,97.976459 291.96764,115.62903 273.71885,113.5 256.48388,110.48895 242.31861,101.21765 228.1251,90.937496 214.94542,80.515408 202.76993,67.122379 187.5626,59.062496 150.05119,48.376814 115.571,29.542535 85.156352,0.74999631 84.522713,0.60425943 83.883741,0.0670234 83.250102,-3.687426e-6 z M 223.03135,172.03125 c -3.04147,6.80274 -7.10096,13.51405 -11.15625,20.09375 -11.15204,17.20456 -23.3101,33.49293 -39.53125,48.40625 l 0,12.40625 42.59375,-37.40625 24.3125,-22.03125 0,-1.375 -1,-6.40625 c -2.02764,2.11889 -4.05228,4.26709 -7.09375,6.40625 -11.15204,10.28015 -21.30289,20.77661 -33.46875,30.46875 l 0,-0.1875 c 8.11057,-9.79352 15.22957,-19.91999 21.3125,-30.28125 2.02764,-2.91981 3.03486,-5.86228 5.0625,-8.8125 l -1.03125,-11.28125 z"
      id="path6461"
      style="fill:#000000;fill-rule:evenodd;stroke:none;"
  />
  <path
      d="m 378.15563,144.80981 c 6.08293,3.60921 12.16587,8.00919 18.2488,12.59167 1.01382,1.33824 2.02764,3.23409 1.01382,5.18063 -1.01382,1.6728 -2.02765,3.38616 -1.01382,5.37325 1.01382,1.66267 3.04146,2.59539 3.04146,4.81566 0,4.39998 -5.06911,5.55574 -8.11057,6.85343 -11.15204,3.37603 -16.22115,-11.71978 -26.35937,-10.56402 -15.20733,-0.78064 -29.40083,3.75114 -44.60816,1.85529 -14.1935,-1.33824 -27.37319,-4.94745 -40.55287,-9.0737 7.09675,-8.10044 12.16586,-17.0829 15.20733,-26.66352 25.34554,9.30689 53.73255,12.26725 83.13338,9.63131 z"
      id="path6465"
      style="fill:#ffffff;fill-rule:nonzero;stroke:#ffffff;stroke-width:0.71981353;stroke-linecap:butt;stroke-linejoin:miter;stroke-miterlimit:3.86400008;stroke-dasharray:none;"
  />
  <path
      d="m 155.11484,228.01417 c -21.29026,19.5262 -41.5667,42.15471 -59.815489,67.69288 -32.442297,46.61552 -48.663446,101.63563 -58.801664,153.1175 l -37.5114066,-0.0101 C 8.1106766,391.01644 31.428578,333.70509 66.912341,281.93935 86.174955,253.69427 108.47903,228.91647 132.81076,207.75801 l 22.30408,20.25616 z m 389.30757,-48.19709 c 37.51141,28.72157 67.92606,65.02653 89.21632,105.99507 l -3.04147,0.69953 c -19.26261,-30.88101 -43.59434,-58.38599 -72.99517,-81.40989 -31.42847,-24.12896 -64.88459,-41.1713 -99.35453,-51.57311 l 9.12439,-16.14004 c 27.37319,10.01655 52.71874,24.11882 77.05046,42.42844"
      id="path6467"
      style="fill:#999999;fill-rule:nonzero;stroke:none;"
  />
</svg>
